<mxfile host="app.diagrams.net" agent="Mozilla/5.0 (Windows NT 10.0; Win64; x64) AppleWebKit/537.36 (KHTML, like Gecko) Chrome/134.0.0.0 Safari/537.36" version="26.2.4">
  <diagram name="Page-1" id="0783ab3e-0a74-02c8-0abd-f7b4e66b4bec">
    <mxGraphModel dx="2890" dy="1119" grid="1" gridSize="10" guides="1" tooltips="1" connect="1" arrows="1" fold="1" page="1" pageScale="1" pageWidth="850" pageHeight="1100" background="none" math="0" shadow="0">
      <root>
        <mxCell id="0" />
        <mxCell id="1" parent="0" />
        <mxCell id="7YTmDrb1H7P5JwjWDrvE-56" value="&lt;font style=&quot;font-size: 24px;&quot;&gt;Hệ thống&lt;/font&gt;" style="swimlane;html=1;startSize=40;" vertex="1" parent="1">
          <mxGeometry x="50" y="80" width="590" height="1230" as="geometry" />
        </mxCell>
        <mxCell id="7YTmDrb1H7P5JwjWDrvE-35" value="&lt;font style=&quot;font-size: 24px;&quot;&gt;Khách Hàng&lt;/font&gt;" style="swimlane;html=1;startSize=40;" vertex="1" parent="1">
          <mxGeometry x="-540" y="80" width="590" height="1230" as="geometry" />
        </mxCell>
        <mxCell id="7YTmDrb1H7P5JwjWDrvE-59" value="Thông báo lỗi cần nhập đủ thông tin bắt buộc" style="rounded=1;whiteSpace=wrap;html=1;shadow=0;comic=0;labelBackgroundColor=none;strokeWidth=1;fontFamily=Verdana;fontSize=12;align=center;arcSize=50;" vertex="1" parent="7YTmDrb1H7P5JwjWDrvE-35">
          <mxGeometry x="765" y="330" width="185" height="60" as="geometry" />
        </mxCell>
        <mxCell id="7YTmDrb1H7P5JwjWDrvE-57" value="" style="shape=mxgraph.bpmn.shape;html=1;verticalLabelPosition=bottom;labelBackgroundColor=#ffffff;verticalAlign=top;perimeter=ellipsePerimeter;outline=end;symbol=terminate;rounded=0;shadow=0;comic=0;strokeWidth=1;fontFamily=Verdana;fontSize=12;align=center;" vertex="1" parent="7YTmDrb1H7P5JwjWDrvE-35">
          <mxGeometry x="1050" y="662.5" width="65" height="65" as="geometry" />
        </mxCell>
        <mxCell id="7YTmDrb1H7P5JwjWDrvE-89" style="edgeStyle=orthogonalEdgeStyle;rounded=0;orthogonalLoop=1;jettySize=auto;html=1;entryX=0;entryY=0.5;entryDx=0;entryDy=0;endArrow=none;startFill=0;" edge="1" parent="7YTmDrb1H7P5JwjWDrvE-35" source="7YTmDrb1H7P5JwjWDrvE-62" target="7YTmDrb1H7P5JwjWDrvE-57">
          <mxGeometry relative="1" as="geometry" />
        </mxCell>
        <mxCell id="7YTmDrb1H7P5JwjWDrvE-62" value="Thông báo đặt mua sản phẩm thành công" style="rounded=1;whiteSpace=wrap;html=1;shadow=0;comic=0;labelBackgroundColor=none;strokeWidth=1;fontFamily=Verdana;fontSize=12;align=center;arcSize=50;" vertex="1" parent="7YTmDrb1H7P5JwjWDrvE-35">
          <mxGeometry x="792.5" y="660" width="150" height="70" as="geometry" />
        </mxCell>
        <mxCell id="7YTmDrb1H7P5JwjWDrvE-88" style="edgeStyle=orthogonalEdgeStyle;rounded=0;orthogonalLoop=1;jettySize=auto;html=1;entryX=0.5;entryY=1;entryDx=0;entryDy=0;" edge="1" parent="7YTmDrb1H7P5JwjWDrvE-35" source="7YTmDrb1H7P5JwjWDrvE-64" target="7YTmDrb1H7P5JwjWDrvE-62">
          <mxGeometry relative="1" as="geometry" />
        </mxCell>
        <mxCell id="7YTmDrb1H7P5JwjWDrvE-64" value="Lưu thông tin đơn hàng và gửi về cho hệ thống" style="rounded=1;whiteSpace=wrap;html=1;shadow=0;comic=0;labelBackgroundColor=none;strokeWidth=1;fontFamily=Verdana;fontSize=12;align=center;arcSize=50;" vertex="1" parent="7YTmDrb1H7P5JwjWDrvE-35">
          <mxGeometry x="790" y="860" width="155" height="60" as="geometry" />
        </mxCell>
        <mxCell id="7YTmDrb1H7P5JwjWDrvE-60" value="Thông báo thông tin xác nhận đầy đủ" style="rounded=1;whiteSpace=wrap;html=1;shadow=0;comic=0;labelBackgroundColor=none;strokeWidth=1;fontFamily=Verdana;fontSize=12;align=center;arcSize=50;" vertex="1" parent="7YTmDrb1H7P5JwjWDrvE-35">
          <mxGeometry x="785" y="450" width="165" height="80" as="geometry" />
        </mxCell>
        <mxCell id="7YTmDrb1H7P5JwjWDrvE-58" value="Hiển thị giao diện thanh toán" style="rounded=1;whiteSpace=wrap;html=1;shadow=0;comic=0;labelBackgroundColor=none;strokeWidth=1;fontFamily=Verdana;fontSize=12;align=center;arcSize=50;" vertex="1" parent="7YTmDrb1H7P5JwjWDrvE-35">
          <mxGeometry x="840" y="130" width="140" height="70" as="geometry" />
        </mxCell>
        <mxCell id="7YTmDrb1H7P5JwjWDrvE-65" value="Hiển thị hướng dẫn thanh toán trực tuyến" style="rounded=1;whiteSpace=wrap;html=1;shadow=0;comic=0;labelBackgroundColor=none;strokeWidth=1;fontFamily=Verdana;fontSize=12;align=center;arcSize=50;" vertex="1" parent="7YTmDrb1H7P5JwjWDrvE-35">
          <mxGeometry x="670" y="1000" width="180" height="60" as="geometry" />
        </mxCell>
        <mxCell id="7YTmDrb1H7P5JwjWDrvE-38" style="edgeStyle=orthogonalEdgeStyle;rounded=0;html=1;labelBackgroundColor=none;startArrow=none;startFill=0;startSize=5;endArrow=classicThin;endFill=1;endSize=5;jettySize=auto;orthogonalLoop=1;strokeWidth=1;fontFamily=Verdana;fontSize=12" edge="1" parent="7YTmDrb1H7P5JwjWDrvE-35" source="7YTmDrb1H7P5JwjWDrvE-36" target="7YTmDrb1H7P5JwjWDrvE-37">
          <mxGeometry relative="1" as="geometry" />
        </mxCell>
        <mxCell id="7YTmDrb1H7P5JwjWDrvE-36" value="" style="ellipse;whiteSpace=wrap;html=1;rounded=0;shadow=0;comic=0;labelBackgroundColor=none;strokeWidth=1;fillColor=#000000;fontFamily=Verdana;fontSize=12;align=center;" vertex="1" parent="7YTmDrb1H7P5JwjWDrvE-35">
          <mxGeometry x="80" y="130" width="70" height="70" as="geometry" />
        </mxCell>
        <mxCell id="7YTmDrb1H7P5JwjWDrvE-37" value="Chọn chức năng thanh toán" style="rounded=1;whiteSpace=wrap;html=1;shadow=0;comic=0;labelBackgroundColor=none;strokeWidth=1;fontFamily=Verdana;fontSize=12;align=center;arcSize=50;" vertex="1" parent="7YTmDrb1H7P5JwjWDrvE-35">
          <mxGeometry x="235" y="130" width="205" height="70" as="geometry" />
        </mxCell>
        <mxCell id="7YTmDrb1H7P5JwjWDrvE-77" style="edgeStyle=orthogonalEdgeStyle;rounded=0;orthogonalLoop=1;jettySize=auto;html=1;" edge="1" parent="7YTmDrb1H7P5JwjWDrvE-35" source="7YTmDrb1H7P5JwjWDrvE-40" target="7YTmDrb1H7P5JwjWDrvE-44">
          <mxGeometry relative="1" as="geometry" />
        </mxCell>
        <mxCell id="7YTmDrb1H7P5JwjWDrvE-40" value="Điền các thông tin, địa chỉ giao hàng, phương thức vận chuyển, phương thức thanh toán,.." style="rounded=1;whiteSpace=wrap;html=1;shadow=0;comic=0;labelBackgroundColor=none;strokeWidth=1;fontFamily=Verdana;fontSize=12;align=center;arcSize=50;" vertex="1" parent="7YTmDrb1H7P5JwjWDrvE-35">
          <mxGeometry x="110" y="280" width="273.33" height="80" as="geometry" />
        </mxCell>
        <mxCell id="7YTmDrb1H7P5JwjWDrvE-81" style="edgeStyle=orthogonalEdgeStyle;rounded=0;orthogonalLoop=1;jettySize=auto;html=1;entryX=0.5;entryY=0;entryDx=0;entryDy=0;" edge="1" parent="7YTmDrb1H7P5JwjWDrvE-35" source="7YTmDrb1H7P5JwjWDrvE-42" target="7YTmDrb1H7P5JwjWDrvE-45">
          <mxGeometry relative="1" as="geometry" />
        </mxCell>
        <mxCell id="7YTmDrb1H7P5JwjWDrvE-42" value="Nhấn nút thanh toán đơn hàng" style="rounded=1;whiteSpace=wrap;html=1;shadow=0;comic=0;labelBackgroundColor=none;strokeWidth=1;fontFamily=Verdana;fontSize=12;align=center;arcSize=50;" vertex="1" parent="7YTmDrb1H7P5JwjWDrvE-35">
          <mxGeometry x="159.16" y="550" width="175" height="50" as="geometry" />
        </mxCell>
        <mxCell id="7YTmDrb1H7P5JwjWDrvE-43" value="Hoàn thành thanh toán trực tuyến" style="rounded=1;whiteSpace=wrap;html=1;shadow=0;comic=0;labelBackgroundColor=none;strokeWidth=1;fontFamily=Verdana;fontSize=12;align=center;arcSize=50;" vertex="1" parent="7YTmDrb1H7P5JwjWDrvE-35">
          <mxGeometry x="164.17" y="1110" width="205" height="80" as="geometry" />
        </mxCell>
        <mxCell id="7YTmDrb1H7P5JwjWDrvE-44" value="Nhập đủ thông tin" style="rhombus;whiteSpace=wrap;html=1;" vertex="1" parent="7YTmDrb1H7P5JwjWDrvE-35">
          <mxGeometry x="180" y="415" width="133.34" height="70" as="geometry" />
        </mxCell>
        <mxCell id="7YTmDrb1H7P5JwjWDrvE-45" value="Phương thức thanh toán" style="rhombus;whiteSpace=wrap;html=1;" vertex="1" parent="7YTmDrb1H7P5JwjWDrvE-35">
          <mxGeometry x="164.17" y="780" width="165" height="70" as="geometry" />
        </mxCell>
        <mxCell id="7YTmDrb1H7P5JwjWDrvE-73" style="edgeStyle=orthogonalEdgeStyle;rounded=0;orthogonalLoop=1;jettySize=auto;html=1;entryX=0;entryY=0.5;entryDx=0;entryDy=0;" edge="1" parent="7YTmDrb1H7P5JwjWDrvE-35" source="7YTmDrb1H7P5JwjWDrvE-37" target="7YTmDrb1H7P5JwjWDrvE-58">
          <mxGeometry relative="1" as="geometry" />
        </mxCell>
        <mxCell id="7YTmDrb1H7P5JwjWDrvE-75" style="edgeStyle=orthogonalEdgeStyle;rounded=0;orthogonalLoop=1;jettySize=auto;html=1;" edge="1" parent="7YTmDrb1H7P5JwjWDrvE-35" source="7YTmDrb1H7P5JwjWDrvE-58" target="7YTmDrb1H7P5JwjWDrvE-40">
          <mxGeometry relative="1" as="geometry">
            <Array as="points">
              <mxPoint x="910" y="240" />
              <mxPoint x="247" y="240" />
            </Array>
          </mxGeometry>
        </mxCell>
        <mxCell id="7YTmDrb1H7P5JwjWDrvE-76" style="edgeStyle=orthogonalEdgeStyle;rounded=0;orthogonalLoop=1;jettySize=auto;html=1;entryX=1;entryY=0.5;entryDx=0;entryDy=0;" edge="1" parent="7YTmDrb1H7P5JwjWDrvE-35" source="7YTmDrb1H7P5JwjWDrvE-59" target="7YTmDrb1H7P5JwjWDrvE-40">
          <mxGeometry relative="1" as="geometry">
            <Array as="points">
              <mxPoint x="858" y="320" />
            </Array>
          </mxGeometry>
        </mxCell>
        <mxCell id="7YTmDrb1H7P5JwjWDrvE-78" style="edgeStyle=orthogonalEdgeStyle;rounded=0;orthogonalLoop=1;jettySize=auto;html=1;entryX=0;entryY=0.5;entryDx=0;entryDy=0;" edge="1" parent="7YTmDrb1H7P5JwjWDrvE-35" source="7YTmDrb1H7P5JwjWDrvE-44" target="7YTmDrb1H7P5JwjWDrvE-59">
          <mxGeometry relative="1" as="geometry" />
        </mxCell>
        <mxCell id="7YTmDrb1H7P5JwjWDrvE-94" value="No" style="edgeLabel;html=1;align=center;verticalAlign=middle;resizable=0;points=[];" vertex="1" connectable="0" parent="7YTmDrb1H7P5JwjWDrvE-78">
          <mxGeometry x="-0.7697" y="-2" relative="1" as="geometry">
            <mxPoint as="offset" />
          </mxGeometry>
        </mxCell>
        <mxCell id="7YTmDrb1H7P5JwjWDrvE-79" style="edgeStyle=orthogonalEdgeStyle;rounded=0;orthogonalLoop=1;jettySize=auto;html=1;entryX=0;entryY=0.5;entryDx=0;entryDy=0;" edge="1" parent="7YTmDrb1H7P5JwjWDrvE-35" source="7YTmDrb1H7P5JwjWDrvE-44" target="7YTmDrb1H7P5JwjWDrvE-60">
          <mxGeometry relative="1" as="geometry">
            <Array as="points">
              <mxPoint x="247" y="490" />
            </Array>
          </mxGeometry>
        </mxCell>
        <mxCell id="7YTmDrb1H7P5JwjWDrvE-92" value="Yes" style="edgeLabel;html=1;align=center;verticalAlign=middle;resizable=0;points=[];" vertex="1" connectable="0" parent="7YTmDrb1H7P5JwjWDrvE-79">
          <mxGeometry x="-0.5066" y="3" relative="1" as="geometry">
            <mxPoint as="offset" />
          </mxGeometry>
        </mxCell>
        <mxCell id="7YTmDrb1H7P5JwjWDrvE-80" style="edgeStyle=orthogonalEdgeStyle;rounded=0;orthogonalLoop=1;jettySize=auto;html=1;entryX=1;entryY=0.5;entryDx=0;entryDy=0;" edge="1" parent="7YTmDrb1H7P5JwjWDrvE-35" source="7YTmDrb1H7P5JwjWDrvE-60" target="7YTmDrb1H7P5JwjWDrvE-42">
          <mxGeometry relative="1" as="geometry">
            <Array as="points">
              <mxPoint x="868" y="575" />
            </Array>
          </mxGeometry>
        </mxCell>
        <mxCell id="7YTmDrb1H7P5JwjWDrvE-83" style="edgeStyle=orthogonalEdgeStyle;rounded=0;orthogonalLoop=1;jettySize=auto;html=1;entryX=0;entryY=0.5;entryDx=0;entryDy=0;" edge="1" parent="7YTmDrb1H7P5JwjWDrvE-35" source="7YTmDrb1H7P5JwjWDrvE-45" target="7YTmDrb1H7P5JwjWDrvE-64">
          <mxGeometry relative="1" as="geometry">
            <Array as="points">
              <mxPoint x="450" y="815" />
              <mxPoint x="450" y="890" />
            </Array>
          </mxGeometry>
        </mxCell>
        <mxCell id="7YTmDrb1H7P5JwjWDrvE-90" value="Khác" style="edgeLabel;html=1;align=center;verticalAlign=middle;resizable=0;points=[];" vertex="1" connectable="0" parent="7YTmDrb1H7P5JwjWDrvE-83">
          <mxGeometry x="-0.4573" relative="1" as="geometry">
            <mxPoint as="offset" />
          </mxGeometry>
        </mxCell>
        <mxCell id="7YTmDrb1H7P5JwjWDrvE-84" style="edgeStyle=orthogonalEdgeStyle;rounded=0;orthogonalLoop=1;jettySize=auto;html=1;entryX=0;entryY=0.5;entryDx=0;entryDy=0;" edge="1" parent="7YTmDrb1H7P5JwjWDrvE-35" source="7YTmDrb1H7P5JwjWDrvE-45" target="7YTmDrb1H7P5JwjWDrvE-65">
          <mxGeometry relative="1" as="geometry">
            <Array as="points">
              <mxPoint x="247" y="1030" />
            </Array>
          </mxGeometry>
        </mxCell>
        <mxCell id="7YTmDrb1H7P5JwjWDrvE-91" value="Trực tuyến" style="edgeLabel;html=1;align=center;verticalAlign=middle;resizable=0;points=[];" vertex="1" connectable="0" parent="7YTmDrb1H7P5JwjWDrvE-84">
          <mxGeometry x="-0.8025" y="-2" relative="1" as="geometry">
            <mxPoint as="offset" />
          </mxGeometry>
        </mxCell>
        <mxCell id="7YTmDrb1H7P5JwjWDrvE-85" style="edgeStyle=orthogonalEdgeStyle;rounded=0;orthogonalLoop=1;jettySize=auto;html=1;" edge="1" parent="7YTmDrb1H7P5JwjWDrvE-35" source="7YTmDrb1H7P5JwjWDrvE-65" target="7YTmDrb1H7P5JwjWDrvE-43">
          <mxGeometry relative="1" as="geometry">
            <Array as="points">
              <mxPoint x="760" y="1090" />
              <mxPoint x="267" y="1090" />
            </Array>
          </mxGeometry>
        </mxCell>
        <mxCell id="7YTmDrb1H7P5JwjWDrvE-86" style="edgeStyle=orthogonalEdgeStyle;rounded=0;orthogonalLoop=1;jettySize=auto;html=1;entryX=1;entryY=0.5;entryDx=0;entryDy=0;" edge="1" parent="7YTmDrb1H7P5JwjWDrvE-35" source="7YTmDrb1H7P5JwjWDrvE-43" target="7YTmDrb1H7P5JwjWDrvE-64">
          <mxGeometry relative="1" as="geometry">
            <Array as="points">
              <mxPoint x="1010" y="1150" />
              <mxPoint x="1010" y="890" />
            </Array>
          </mxGeometry>
        </mxCell>
      </root>
    </mxGraphModel>
  </diagram>
</mxfile>
